<svg width="19" height="12" viewBox="0 0 19 12" fill="none" xmlns="http://www.w3.org/2000/svg">
<path fill-rule="evenodd" clip-rule="evenodd" d="M6.12117 0.00480935C2.96717 -0.0981907 0.0691727 2.60881 0.0161727 5.69981C-0.184827 8.22681 1.50917 10.7048 3.90317 11.5978C6.28717 12.4978 9.34417 11.8848 10.8662 9.78481C11.8722 8.45881 12.0882 6.75081 11.9712 5.14681C11.9712 5.14681 8.07017 5.14081 6.12117 5.14681C6.11861 5.73007 6.12043 6.30895 6.12226 6.89094C6.12257 6.98946 6.12288 7.08807 6.12317 7.18681C6.83864 7.20951 7.55524 7.21188 8.27158 7.21425C8.72266 7.21575 9.17364 7.21724 9.62417 7.22381C9.11017 9.75881 5.59117 10.5818 3.73017 8.92581C1.81617 7.47281 1.90717 4.28781 3.89717 2.93881C5.28817 1.84981 7.26617 2.11881 8.65717 3.06181C9.20417 2.56581 9.71517 2.03581 10.2092 1.48581C9.05117 0.580809 7.63117 -0.0641907 6.12117 0.00480935ZM17.0006 3.00001H15.0026C14.9986 3.3756 15.0001 3.75344 15.0016 4.13171C15.0027 4.42117 15.0039 4.71087 15.0026 5.00001C14.7061 5.00134 14.4086 5.00031 14.1112 4.99927C13.7397 4.99797 13.3684 4.99668 12.9996 5.00001V6.99901C13.3316 7.00251 13.6667 7.00076 14.0016 6.99901C14.3364 6.99726 14.6711 6.99551 15.0026 6.99901C15.0062 7.33903 15.0045 7.68221 15.0028 8.0253C15.0012 8.3512 14.9997 8.67703 15.0026 9.00001H17.0006C17.0019 8.71295 17.0007 8.42439 16.9996 8.1353C16.9981 7.75671 16.9966 7.37722 17.0006 6.99901C17.3337 6.99551 17.6678 6.99726 18.0016 6.99901C18.3351 7.00076 18.6682 7.00251 18.9996 6.99901V5.00001C18.6766 4.99709 18.3512 4.99867 18.0258 5.00026C17.6832 5.00193 17.3406 5.0036 17.0006 5.00001C16.9966 4.62419 16.9981 4.24483 16.9996 3.86594C17.0007 3.57643 17.0019 3.28719 17.0006 3.00001Z" fill="#DD4241"/>
</svg>
