<svg width="12" height="16" viewBox="0 0 12 16" fill="none" xmlns="http://www.w3.org/2000/svg">
<path fill-rule="evenodd" clip-rule="evenodd" d="M0.30565 7.70284C0.0499241 8.11934 -0.0578032 9.43082 0.0302914 10.3013C0.0615021 10.5888 0.112849 10.8283 0.186848 10.9713C0.289038 11.1688 0.4612 11.2868 0.657526 11.2933C0.783375 11.3003 0.861402 11.2783 3.22536 10.5058C3.22536 10.5058 4.27595 10.1658 4.28048 10.1633C4.54225 10.0963 4.71844 9.85132 4.73606 9.53832C4.75267 9.21832 4.58957 8.93483 4.32126 8.83283C4.32126 8.83283 3.58126 8.52583 3.57925 8.52583C1.0391 7.46134 0.925334 7.41934 0.796967 7.41784C0.601145 7.41034 0.425963 7.51034 0.30565 7.70284ZM5.98841 15.6346C6.02969 15.5141 6.03422 15.4306 6.04127 12.9071C6.04127 12.9071 6.04731 11.7926 6.04781 11.7806C6.06443 11.5082 5.89126 11.2597 5.60533 11.1472C5.31185 11.0327 4.99621 11.1037 4.81902 11.3287C4.81902 11.3287 4.30102 11.9536 4.29901 11.9536C2.51849 14.0771 2.4455 14.1751 2.4017 14.3011C2.37552 14.3761 2.36445 14.4541 2.37401 14.5326C2.38458 14.6446 2.43392 14.7566 2.51748 14.8596C2.92976 15.3586 4.90913 16.0986 5.54089 15.9891C5.76088 15.9481 5.91995 15.8226 5.98841 15.6346ZM10.0022 14.7565C10.5987 14.515 11.901 12.8325 11.9926 12.185C12.0239 11.96 11.9549 11.7655 11.8019 11.642C11.7022 11.5655 11.6247 11.5356 9.26272 10.7481C9.26272 10.7481 8.22672 10.4001 8.21313 10.3936C7.96294 10.2951 7.676 10.3856 7.48371 10.6281C7.28436 10.8756 7.25315 11.2011 7.41273 11.4486L7.83004 12.138C9.23302 14.4525 9.33974 14.616 9.44092 14.696C9.59697 14.821 9.79531 14.8415 10.0022 14.7565ZM8.78247 8.79928C11.4671 8.13879 11.5708 8.10329 11.677 8.03279C11.8391 7.92229 11.9207 7.73579 11.9071 7.50879C11.9071 7.50129 11.9081 7.49429 11.9071 7.48579C11.8381 6.8168 10.6823 5.07382 10.1135 4.79132C9.9121 4.69282 9.70973 4.69982 9.54361 4.81332C9.43991 4.88232 9.36289 4.98582 7.92569 6.9828C7.92569 6.9828 7.2758 7.88229 7.26825 7.89079C7.09659 8.10179 7.09508 8.40578 7.26171 8.66578C7.43488 8.93478 7.72786 9.06578 7.99617 8.99028C7.99617 8.99028 7.98509 9.00928 7.98207 9.01328C8.11446 8.96178 8.35157 8.90328 8.78247 8.79928ZM6.08622 6.5469C6.04041 5.46641 5.72076 0.652465 5.683 0.428968C5.62763 0.22747 5.47308 0.0829718 5.24907 0.0254721C4.56445 -0.147526 1.94527 0.598966 1.45949 1.10796C1.30394 1.27296 1.24555 1.47696 1.29236 1.65645C1.36837 1.81645 4.61479 7.0044 4.61479 7.0044C5.09503 7.79489 5.48617 7.67239 5.61404 7.63189C5.7414 7.59139 6.13052 7.46889 6.08622 6.5469Z" fill="#D32200"/>
</svg>
