<svg width="583" height="326" viewBox="0 0 583 326" fill="none" xmlns="http://www.w3.org/2000/svg">
<g opacity="0.35">
<path d="M123.499 99.9031C123.499 95.8376 123.199 93.234 127.209 91.1478C129.157 90.1341 131.029 89.897 133.208 89.897C135.677 89.897 138.036 89.6961 139.985 91.5647C140.619 92.1722 141.223 92.8163 141.84 93.4409C142.182 93.7869 142.468 95.245 142.733 95.2938C144.587 95.6349 147.192 93.9198 149.053 93.5567C150.742 93.2268 152.522 92.637 154.182 92.1669C157.674 91.1778 161.029 89.5321 164.508 88.461C169.045 87.0641 176.423 88.7775 176.987 94.4832C177.237 97.0093 173.716 99.4398 171.904 100.505C168.149 102.714 164.084 104.554 160.181 106.481C149.727 111.644 137.85 113.464 126.796 116.904C116.705 120.045 107.256 122 96.7552 122C94.8326 122 93 119.525 93 117.645C93 114.231 94.6485 112.046 97.5108 110.164C100.047 108.497 103.438 107.511 106.395 106.991C109.246 106.489 111.366 105.384 114.02 104.489" stroke="white" stroke-width="3" stroke-miterlimit="10" stroke-linecap="round" stroke-linejoin="round"/>
<path d="M198 85C212.221 91.167 226.304 97.3666 240.161 104.327C246.071 107.296 252.089 110.408 256.943 115.019C262.847 120.627 270.59 124.17 277 129" stroke="white" stroke-width="3" stroke-miterlimit="10" stroke-linecap="round" stroke-linejoin="round"/>
<path d="M11.8292 109.761C0.145431 113.105 1.39727 118.956 3.06638 123.554C3.92764 125.926 30.4598 215.315 56.4776 310.798C70.7973 363.35 84.202 420.37 94.8675 459.59C96.5725 465.859 101.126 468.367 106.551 466.277C109.481 465.149 181.278 441.496 240.914 425.318C291.674 411.548 331.324 404.929 336.888 403.584C348.99 400.658 349.824 396.061 348.572 390.21C347.885 386.997 318.71 280.368 294.743 191.681C275.053 118.82 259.798 61.0575 258.857 57.0989C256.771 48.3219 253.433 45.8141 245.922 47.486C242.285 48.2955 171.251 69.4047 116.983 83.8481C59.1716 99.2347 17.8558 108.037 11.8292 109.761Z" stroke="white" stroke-width="3" stroke-miterlimit="10" stroke-linecap="round" stroke-linejoin="round"/>
<path d="M260.06 67.733C263.574 67.18 265.448 66.0223 268.961 65.3831C273.543 64.5497 280.428 67.296 280.163 73.2442C280.046 75.8777 276.299 77.9105 274.397 78.7659C270.456 80.5392 268.692 80.8647 264.648 82.3288" stroke="white" stroke-width="3" stroke-miterlimit="10" stroke-linecap="round" stroke-linejoin="round"/>
<path d="M280.57 51.052C297.003 61.2892 313.26 71.5443 329.106 82.7262C335.864 87.4952 342.73 92.4652 347.901 99.1378C354.191 107.254 363.105 113.064 370.154 120.278" stroke="white" stroke-width="3" stroke-miterlimit="10" stroke-linecap="round" stroke-linejoin="round"/>
<path d="M109.93 84.414C108.988 79.4737 107.066 62.9566 118.689 61.0605C124.684 60.0825 166.588 63.1896 223.933 54.9965C277.763 47.3057 348.537 34.9764 352.122 34.6237C359.526 33.8952 362.356 36.9093 363.105 46.196C363.442 50.3844 369.823 111.701 378.298 189.104C388.614 283.32 401.359 396.644 401.561 400.033C401.927 406.205 400.48 410.816 388.518 412.228C383.018 412.878 344.244 414.457 293.857 421.918C255.084 427.659 210.879 436.006 184.16 441.3" stroke="white" stroke-width="3" stroke-miterlimit="10" stroke-linecap="round" stroke-linejoin="round"/>
<path d="M363.936 54C374.372 54.4164 454.938 60.6626 464.121 61.4954C473.305 62.3282 474.14 73.9878 472.053 100.222C469.965 126.456 453.685 261.373 454.103 298.017C454.52 334.662 450.346 420.859 446.589 424.607C442.832 428.354 441.162 430.02 425.3 428.354C412.609 427.022 341.812 422.247 308 420.026" stroke="white" stroke-width="3" stroke-miterlimit="10" stroke-linecap="round" stroke-linejoin="round"/>
<path d="M391 54C404.024 71.8145 420.094 87.7482 434.261 104.764C445.33 118.058 455.492 130.129 470 140" stroke="white" stroke-width="3" stroke-miterlimit="10" stroke-linecap="round" stroke-linejoin="round"/>
<path d="M365 73.0004C371.603 73.0004 378.206 73.0004 384.809 73.0004C389.402 73.0004 392.105 72.8671 394.332 77.5297C395.333 79.6253 395.275 82.699 393.703 84.3007C391.26 86.7887 389.93 87 386.426 87" stroke="white" stroke-width="3" stroke-miterlimit="10" stroke-linecap="round" stroke-linejoin="round"/>
<path d="M469 123.633C474.865 124.905 480.721 125.623 486.714 125.798C488.525 125.85 490.877 126.225 492.688 125.798C493.563 125.591 495.718 124.984 496.098 123.973C496.318 123.39 497.089 122.652 496.991 122.076C496.569 119.612 493.673 118.575 491.887 117.527C489.847 116.331 487.878 115.267 485.89 114" stroke="white" stroke-width="3" stroke-miterlimit="10" stroke-linecap="round" stroke-linejoin="round"/>
<path d="M504 95C508.18 110.389 517.424 125.137 526.847 138.622C536.32 152.18 547.983 164.924 555.09 179.589C558.19 185.987 561.133 192.996 567 198" stroke="white" stroke-width="3" stroke-miterlimit="10" stroke-linecap="round" stroke-linejoin="round"/>
<path d="M283 424.774C298.893 428.722 314.686 432.38 330.818 435.194C340.937 436.959 350.585 441.096 360.565 443.437C371.458 445.992 381.982 449.207 393.093 450.615C400.267 451.524 407.98 452.907 414.917 454.968C422.472 457.213 430.69 458.282 438.039 461.22C445.359 464.147 453.622 465.557 461.484 466.43C464.79 466.798 468.252 466.918 471.516 467.519C474.747 468.113 478.409 468.954 481.687 468.954C483.564 468.954 486.092 469.383 487.34 467.611C489.061 465.166 490.613 462.777 492.135 460.202C494.735 455.804 497.737 451.61 499.202 446.632C501.555 438.634 503.227 430.575 505.689 422.597C510.059 408.43 515.868 394.868 519.867 380.593C522.852 369.941 523.986 358.944 525.729 348.059C528.484 330.847 531.235 313.35 535.297 296.4C540.96 272.77 548.702 249.568 555.314 226.192C560.256 208.72 565.318 191.246 569.724 173.629C572.389 162.978 572.855 151.837 575.563 141.142C577.274 134.381 578.557 127.541 580.127 120.742C580.74 118.087 581.427 116.031 580.66 113.425C578.698 106.759 568.556 106.882 563.214 104.88C558.185 102.995 552.509 102.883 547.368 101.384C540.36 99.3412 533.094 98.8224 525.891 97.8179C519.423 96.9158 513.002 95.8024 506.523 94.993C502.415 94.4798 498.119 94.028 494.221 92.5848C488.825 90.5873 482.425 89.9844 476.775 89.0652C474.479 88.6915 472.548 88 470.242 88" stroke="white" stroke-width="3" stroke-miterlimit="10" stroke-linecap="round" stroke-linejoin="round"/>
</g>
</svg>
